<svg width="77" height="129" viewBox="0 0 77 129" fill="none" xmlns="http://www.w3.org/2000/svg">
<g filter="url(#filter0_d_4_20)">
<rect x="34.973" y="68.4666" width="6.52063" height="52.165" fill="#F98FED"/>
<rect width="68.4666" height="6.52063" transform="matrix(1 0 0 -1 4 97.8094)" fill="#F98FED"/>
<path fill-rule="evenodd" clip-rule="evenodd" d="M38.2333 68.4666C57.1398 68.4666 72.4666 53.1398 72.4666 34.2333C72.4666 15.3268 57.1398 0 38.2333 0C19.3268 0 4 15.3268 4 34.2333C4 53.1398 19.3268 68.4666 38.2333 68.4666ZM38.6408 61.0197C54.1712 61.0197 66.761 49.0022 66.761 34.1777C66.761 19.3533 54.1712 7.33572 38.6408 7.33572C23.1105 7.33572 10.5206 19.3533 10.5206 34.1777C10.5206 49.0022 23.1105 61.0197 38.6408 61.0197Z" fill="#F98FED"/>
</g>
<defs>
<filter id="filter0_d_4_20" x="0" y="0" width="76.4666" height="128.632" filterUnits="userSpaceOnUse" color-interpolation-filters="sRGB">
<feFlood flood-opacity="0" result="BackgroundImageFix"/>
<feColorMatrix in="SourceAlpha" type="matrix" values="0 0 0 0 0 0 0 0 0 0 0 0 0 0 0 0 0 0 127 0" result="hardAlpha"/>
<feOffset dy="4"/>
<feGaussianBlur stdDeviation="2"/>
<feComposite in2="hardAlpha" operator="out"/>
<feColorMatrix type="matrix" values="0 0 0 0 0 0 0 0 0 0 0 0 0 0 0 0 0 0 0.25 0"/>
<feBlend mode="normal" in2="BackgroundImageFix" result="effect1_dropShadow_4_20"/>
<feBlend mode="normal" in="SourceGraphic" in2="effect1_dropShadow_4_20" result="shape"/>
</filter>
</defs>
</svg>
