<svg width="101" height="103" viewBox="0 0 101 103" fill="none" xmlns="http://www.w3.org/2000/svg">
<path fill-rule="evenodd" clip-rule="evenodd" d="M31.3401 102.702C48.197 102.702 61.8622 89.3436 61.8622 72.8655C61.8622 56.3874 48.197 43.0293 31.3401 43.0293C14.4832 43.0293 0.817924 56.3874 0.817924 72.8655C0.817924 89.3436 14.4832 102.702 31.3401 102.702ZM31.3401 96.5157C45.3072 96.5157 56.6298 85.8438 56.6298 72.6794C56.6298 59.5149 45.3072 48.843 31.3401 48.843C17.3729 48.843 6.05029 59.5149 6.05029 72.6794C6.05029 85.8438 17.3729 96.5157 31.3401 96.5157Z" fill="#6FA8DC"/>
<path d="M100.812 4.76488C100.871 3.16053 99.618 1.81236 98.0137 1.75367L71.8693 0.797171C70.265 0.738475 68.9168 1.99147 68.8581 3.59582C68.7994 5.20017 70.0524 6.54833 71.6568 6.60702L94.8962 7.45725L94.0459 30.6967C93.9873 32.301 95.2403 33.6492 96.8446 33.7079C98.4489 33.7666 99.7971 32.5136 99.8558 30.9092L100.812 4.76488ZM50.4695 52.7164L99.8863 6.78784L95.9284 2.52936L46.5116 48.4579L50.4695 52.7164Z" fill="#6FA8DC"/>
</svg>
